<svg width="253" height="63" viewBox="0 0 253 63" fill="none" xmlns="http://www.w3.org/2000/svg">
<path d="M7.42548 0.0546875H0V41.0934H7.42548V0.0546875Z" fill="#0E6CB6"/>
<path d="M74.3063 0.0546875H66.8809V41.0934H74.3063V0.0546875Z" fill="#0E6CB6"/>
<path d="M203.855 16.63C201.451 7.08118 192.85 0 182.647 0C170.574 0 160.744 9.87074 160.744 21.9946C160.744 34.1184 170.52 43.9892 182.647 43.9892C193.064 43.9892 201.771 36.6934 204.015 26.9299C204.389 25.3206 204.549 23.7112 204.549 21.9946C204.549 20.1706 204.335 18.3467 203.855 16.63ZM182.647 36.5325C174.687 36.5325 168.17 30.0414 168.17 22.0482C168.17 14.0014 174.634 7.51034 182.647 7.51034C190.66 7.51034 197.124 14.0014 197.124 22.0482C197.124 30.0414 190.606 36.5325 182.647 36.5325Z" fill="#0E6CB6"/>
<path d="M27.8864 21.9946C27.8864 29.9877 34.3503 36.4788 42.3634 36.4788C46.1563 36.4788 49.5752 35.0304 52.1394 32.67V41.6824C49.2013 43.1308 45.8892 43.9892 42.3634 43.9892C30.2904 43.9892 20.4609 34.1184 20.4609 21.9946C20.4609 9.87074 30.2904 0 42.3634 0C45.8892 0 49.2013 0.858327 52.1394 2.30675V11.3192C49.5752 8.95876 46.1563 7.51034 42.3634 7.51034C34.3503 7.51034 27.8864 14.0014 27.8864 21.9946Z" fill="#0E6CB6"/>
<path d="M152.835 41.4133H144.822L132.749 16.7901L123.828 34.9758L119.768 43.1299L115.761 34.9758L106.626 16.3609L94.3393 41.4133H86.3262L102.619 8.20683L106.626 0.0527344L110.633 8.20683L119.768 26.8217L128.689 8.63598L132.749 0.481899L136.755 8.63598L152.835 41.4133Z" fill="#0E6CB6"/>
<path d="M82.8555 56.9739C82.8555 56.9739 98.1872 41.846 119.502 50.5901C140.817 59.2807 156.897 52.4677 156.897 52.4677C156.897 52.4677 137.238 70.5462 119.876 59.3343C102.514 48.1225 82.8555 56.9739 82.8555 56.9739Z" fill="#0E6CB6"/>
<path d="M252.358 16.7398C250.007 7.35188 241.567 0.431641 231.524 0.431641H217.367V43.5625H231.524C241.727 43.5625 250.274 36.374 252.465 26.8251C252.839 25.2694 252.999 23.6601 252.999 21.9971C252.999 20.1731 252.785 18.4028 252.358 16.7398ZM232.485 36.2131C232.165 36.2131 231.844 36.2667 231.524 36.2667C231.203 36.2667 230.883 36.2667 230.562 36.2131H224.793V7.78105H231.577C239.43 7.78105 245.734 14.1648 245.734 21.9971C245.734 29.5074 239.911 35.6766 232.485 36.2131Z" fill="#0E6CB6"/>
</svg>
