<svg width="20" height="18" viewBox="0 0 20 18" fill="none" xmlns="http://www.w3.org/2000/svg">
<path fill-rule="evenodd" clip-rule="evenodd" d="M5.86916 0.238921C5.615 0.343189 5.47937 0.578034 5.47937 0.913738V1.15636L4.24194 1.15704C2.80348 1.15789 2.64509 1.18034 2.09029 1.46211C1.57399 1.72435 1.19859 2.11062 0.943664 2.64191C0.624971 3.30606 0.643757 2.85189 0.655566 9.60921L0.66605 15.6136L0.757172 15.8943C0.905859 16.3523 1.09827 16.668 1.44172 17.0178C1.80593 17.3887 2.15822 17.5989 2.61901 17.7201C2.91272 17.7974 3.08062 17.7992 10.0004 17.7992C16.9202 17.7992 17.0881 17.7974 17.3818 17.7201C17.8426 17.5989 18.1948 17.3887 18.5591 17.0178C18.9025 16.668 19.0949 16.3523 19.2436 15.8943L19.3347 15.6136L19.3452 9.60921C19.357 2.85189 19.3758 3.30606 19.0571 2.64191C18.8022 2.11062 18.4268 1.72435 17.9105 1.46211C17.3557 1.18034 17.1973 1.15789 15.7588 1.15704L14.5214 1.15636V0.901627C14.5214 0.623832 14.4429 0.455518 14.2417 0.302244C14.0808 0.179608 13.7946 0.170665 13.6077 0.282473C13.4017 0.40567 13.3083 0.582967 13.2837 0.897537L13.2636 1.15636H10.0004H6.73723L6.71708 0.898178C6.70402 0.730627 6.66657 0.589463 6.61037 0.495902C6.46125 0.247623 6.12884 0.132406 5.86916 0.238921ZM5.47937 2.6944C5.47937 2.89255 5.49886 2.97862 5.56707 3.08172C5.7663 3.38294 6.07712 3.4787 6.36499 3.32759C6.58223 3.21358 6.69218 3.01687 6.71708 2.69785L6.73723 2.43967H10.0004H13.2636L13.2837 2.69785C13.3086 3.01687 13.4186 3.21358 13.6358 3.32759C13.9237 3.4787 14.2345 3.38294 14.4337 3.08172C14.5022 2.97825 14.5214 2.89267 14.5214 2.69192V2.43469L15.7978 2.44721L17.0742 2.45972L17.2962 2.56679C17.5794 2.70339 17.8507 2.98255 17.9835 3.27398C18.0854 3.49771 18.0878 3.52149 18.1005 4.4348L18.1133 5.36721H10.0004H1.88746L1.90033 4.4348C1.91295 3.52149 1.91537 3.49771 2.01729 3.27398C2.19275 2.88882 2.5572 2.57506 2.93568 2.4833C3.01643 2.46373 3.62178 2.44592 4.28091 2.44368L5.47937 2.43967V2.6944ZM18.0981 11.0719L18.0876 15.4933L17.9835 15.7217C17.8507 16.0131 17.5794 16.2923 17.2962 16.4289L17.0742 16.536H10.0004H2.92656L2.69482 16.4189C2.3997 16.2698 2.14984 16.0127 2.01729 15.7217L1.91323 15.4933L1.90266 11.0719L1.89206 6.65051H10.0004H18.1087L18.0981 11.0719Z" fill="#5D6571"/>
</svg>
