<svg width="14" height="14" viewBox="0 0 14 14" fill="none" xmlns="http://www.w3.org/2000/svg">
<path fill-rule="evenodd" clip-rule="evenodd" d="M0.634734 1.06587C0.59677 1.14533 0.565676 1.3013 0.565704 1.41247C0.56569 1.79661 0.403808 1.61291 3.25559 4.4647L5.79051 6.99961L3.25574 9.53439C0.404815 12.3853 0.565985 12.2025 0.56602 12.5856C0.56601 13.0587 0.940606 13.4333 1.41368 13.4333C1.79681 13.4333 1.61397 13.5945 4.46489 10.7435L6.99966 8.20877L9.53458 10.7437C12.3857 13.5948 12.2028 13.4336 12.5859 13.4336C13.059 13.4336 13.4336 13.059 13.4336 12.586C13.4336 12.2028 13.5947 12.3857 10.7437 9.5346L8.20875 6.99968L10.7435 4.46491C13.5944 1.61399 13.4333 1.79683 13.4332 1.41371C13.4332 0.940627 13.0587 0.566031 12.5856 0.566042C12.2025 0.566006 12.3853 0.404836 9.53437 3.25576L6.99959 5.79053L4.46468 3.25562C1.61359 0.404531 1.79644 0.565711 1.41332 0.565725C1.07774 0.56569 0.783423 0.754764 0.634734 1.06587Z" fill="#5D6571"/>
</svg>
