<svg width="17" height="21" viewBox="0 0 17 21" fill="none" xmlns="http://www.w3.org/2000/svg">
<path fill-rule="evenodd" clip-rule="evenodd" d="M5.5212 0.561386C5.27823 0.648334 5.01801 0.956545 4.96186 1.22386C4.9371 1.34187 4.9168 1.83968 4.9168 2.33009V3.22174H3.09802C1.14473 3.22174 1.06837 3.22906 0.817149 3.44049C0.316833 3.86157 0.426416 4.69074 1.01948 4.97108C1.17975 5.04683 1.46977 5.04994 8.49242 5.05084C16.504 5.05186 15.9521 5.06943 16.2285 4.8048C16.7144 4.33955 16.5172 3.46445 15.8826 3.2703C15.7741 3.23715 15.1472 3.22174 13.905 3.22174H12.0862V2.33009C12.0862 1.22024 12.0575 1.06579 11.8004 0.795247C11.6756 0.663911 11.5476 0.575048 11.4401 0.545001C11.3268 0.51338 10.3783 0.498953 8.48067 0.500059C6.19496 0.501421 5.65767 0.512529 5.5212 0.561386ZM10.2522 2.77487V3.22174H8.50151H6.75084V2.77487V2.328H8.50151H10.2522V2.77487ZM1.86897 6.06442C1.70666 6.15098 1.61183 6.2398 1.52029 6.39093L1.39462 6.59849L1.38316 11.8791C1.3754 15.4518 1.38603 17.2553 1.416 17.455C1.53322 18.236 1.84483 18.8537 2.41585 19.4367C2.98023 20.0129 3.57746 20.3301 4.33325 20.4552C4.50915 20.4843 5.97146 20.5 8.50151 20.5C11.0316 20.5 12.4939 20.4843 12.6698 20.4552C13.4241 20.3304 14.0195 20.014 14.5864 19.4367C15.1514 18.8614 15.462 18.2521 15.5847 17.479C15.6137 17.296 15.6287 15.4204 15.6289 11.9405L15.6292 6.67871L15.5128 6.45111C15.1708 5.78272 14.2445 5.79353 13.924 6.46962C13.8371 6.65288 13.8369 6.6662 13.8369 11.8262C13.8369 15.1231 13.8217 17.0812 13.7949 17.2253C13.6627 17.937 13.1211 18.4976 12.4433 18.6243C12.1002 18.6885 4.90284 18.6885 4.55975 18.6243C3.901 18.5011 3.35395 17.9529 3.21298 17.2747C3.17976 17.1147 3.16613 15.5378 3.16613 11.8513C3.16613 6.66586 3.16592 6.65288 3.07902 6.46962C2.92729 6.14958 2.60008 5.94551 2.23861 5.94551C2.15791 5.94551 1.99156 5.99901 1.86897 6.06442ZM6.35485 7.85623C6.26315 7.89956 6.13752 7.99012 6.07571 8.05745C5.82432 8.33119 5.83374 8.18185 5.83474 11.8705C5.83561 15.0639 5.83978 15.2537 5.91285 15.4149C6.25307 16.1652 7.34807 16.0974 7.57861 15.3118C7.64589 15.0824 7.64589 8.63995 7.57861 8.4106C7.42977 7.90343 6.82991 7.63165 6.35485 7.85623ZM9.8865 7.86559C9.67237 7.97386 9.48918 8.18989 9.42441 8.4106C9.35713 8.63995 9.35713 15.0824 9.42441 15.3118C9.65495 16.0974 10.75 16.1652 11.0902 15.4149C11.1633 15.2537 11.1674 15.0648 11.1674 11.8612C11.1674 8.65757 11.1633 8.4687 11.0902 8.30753C10.88 7.84402 10.3293 7.64182 9.8865 7.86559Z" fill="#F5F5F5"/>
</svg>
