<svg width="15" height="10" viewBox="0 0 15 10" fill="none" xmlns="http://www.w3.org/2000/svg">
<path fill-rule="evenodd" clip-rule="evenodd" d="M1.24838 0.525803C0.965009 0.601079 0.707963 0.843273 0.579426 1.15611C0.514788 1.31346 0.503421 1.38089 0.503996 1.60382C0.505256 2.09756 0.242348 1.7641 3.77044 5.74704C5.8983 8.14919 6.9475 9.31279 7.03246 9.36473C7.23084 9.48598 7.46512 9.52859 7.67122 9.48088C7.76539 9.45908 7.89877 9.40681 7.96763 9.36473C8.05259 9.31279 9.10178 8.14919 11.2296 5.74704C14.758 1.76376 14.495 2.09734 14.4958 1.60382C14.4962 1.3803 14.4847 1.31281 14.4182 1.14889C14.1883 0.581751 13.5757 0.341842 13.0737 0.622414C13.0024 0.662276 12.0113 1.75665 10.2321 3.76012L7.50004 6.83664L4.76798 3.76012C2.98186 1.74881 1.99799 0.662523 1.92637 0.622631C1.71788 0.506536 1.45963 0.46967 1.24838 0.525803Z" fill="#555555"/>
</svg>
