<svg width="20" height="20" viewBox="0 0 20 20" fill="none" xmlns="http://www.w3.org/2000/svg">
<path fill-rule="evenodd" clip-rule="evenodd" d="M17.3991 0.0478065C16.9315 0.179641 16.7407 0.316685 16.0017 1.05149L15.2987 1.75061L16.7741 3.23006L18.2495 4.70954L18.9467 4.00454C19.6964 3.24651 19.8255 3.06164 19.9526 2.56418C20.0345 2.24372 20.0074 1.70311 19.8932 1.3819C19.6852 0.796829 19.2006 0.31175 18.6128 0.100446C18.314 -0.00702675 17.6896 -0.0340909 17.3991 0.0478065ZM11.0559 6.01183L7.71202 9.37037L7.41379 10.8783C7.24978 11.7076 7.11557 12.4536 7.11561 12.5361C7.11561 12.7465 7.28451 12.9149 7.49547 12.9149C7.67225 12.9149 10.5674 12.3441 10.6637 12.2902C10.6994 12.2703 12.2226 10.7547 14.0486 8.92238L17.3686 5.5909L15.9041 4.12208C15.0987 3.31426 14.4307 2.65329 14.4197 2.65329C14.4087 2.65329 12.8949 4.16465 11.0559 6.01183ZM1.97924 3.37681C1.4879 3.48472 0.954424 3.80244 0.613627 4.19007C0.403094 4.42957 0.150259 4.92155 0.0656947 5.2563C-0.0204323 5.59721 -0.0225806 17.7408 0.0634292 18.1045C0.251151 18.8984 0.797169 19.5292 1.60817 19.8892L1.823 19.9845L8.24655 19.9948C15.3219 20.0061 14.818 20.0223 15.3225 19.767C15.7937 19.5284 16.2478 19.0439 16.468 18.5447C16.6842 18.0544 16.6853 18.0338 16.6853 14.243C16.6853 11.7393 16.6727 10.708 16.6407 10.6011C16.4678 10.0223 15.7062 9.82446 15.2659 10.2439C15.0097 10.4879 15.0272 10.2237 15.0057 14.1683L14.9862 17.752L14.8885 17.9265C14.8348 18.0225 14.7147 18.1547 14.6215 18.2203L14.4521 18.3395L8.43052 18.3511C4.16327 18.3594 2.36605 18.3503 2.26176 18.32C2.06904 18.264 1.84804 18.0661 1.75914 17.8699C1.69133 17.7202 1.68797 17.4307 1.68715 11.6838L1.68629 5.65467L1.76792 5.48562C1.87073 5.2726 2.07618 5.10097 2.29422 5.0459C2.4094 5.01684 3.55835 5.00301 5.91229 5.00242C9.18633 5.0016 9.36948 4.99788 9.51779 4.92903C10.2064 4.60935 10.1442 3.58044 9.42319 3.36381C9.19442 3.29511 2.29652 3.30714 1.97924 3.37681Z" fill="black"/>
</svg>
