
<svg width="20" height="20" viewBox="0 0 20 20" fill="none" xmlns="http://www.w3.org/2000/svg">
<path fill-rule="evenodd" clip-rule="evenodd" d="M0.404202 0.0537671C0.2422 0.124958 0.0423261 0.362287 0.0143812 0.516665C0.00163994 0.586957 -0.00363636 1.76235 0.00265612 3.12865L0.0141077 5.61287L0.127138 5.76096C0.44739 6.18072 1.092 6.12371 1.31868 5.65558C1.39884 5.48999 1.40158 5.43384 1.40158 3.94368V2.40299L3.67821 4.67512C4.93037 5.92479 6.01487 6.97726 6.08827 7.01391C6.1823 7.06092 6.28329 7.07549 6.4306 7.06326C6.90445 7.02399 7.21333 6.49834 7.00634 6.08343C6.97203 6.01466 5.92122 4.93422 4.67121 3.6824L2.39845 1.4064H3.93956C5.43014 1.4064 5.4863 1.40366 5.65194 1.32352C6.1202 1.0969 6.17722 0.452468 5.75734 0.132304L5.60922 0.0193048L3.06569 0.0106306C1.02309 0.0036365 0.49898 0.0121544 0.404202 0.0537671ZM14.3578 0.0612301C14.1757 0.155943 14.0724 0.270075 14.0019 0.454695C13.8743 0.788573 14.0252 1.16727 14.3481 1.32352C14.5137 1.40366 14.5699 1.4064 16.0604 1.4064H17.6015L15.3288 3.6824C14.0788 4.93418 13.026 6.01841 12.9894 6.09179C12.9423 6.1858 12.9278 6.28677 12.94 6.43403C12.9793 6.90775 13.5051 7.21655 13.9201 7.00961C13.9889 6.97531 15.0696 5.92479 16.3218 4.67512L18.5984 2.40299V3.94368C18.5984 5.43384 18.6012 5.48999 18.6813 5.65558C18.908 6.12371 19.5526 6.18072 19.8729 5.76096L19.9859 5.61287L19.9973 3.12865C20.0036 1.76235 19.9984 0.586957 19.9856 0.516665C19.9569 0.357794 19.755 0.122653 19.5872 0.0525559C19.4855 0.0100835 18.9737 -0.000192649 16.9679 2.71627e-06C14.7857 0.000237154 14.4605 0.00785638 14.3578 0.0612301ZM6.26958 12.835C6.14845 12.8781 5.6091 13.3959 3.75845 15.2459L1.40158 17.6019V16.0612C1.40158 14.5711 1.39884 14.5149 1.31868 14.3493C1.092 13.8812 0.44739 13.8242 0.127138 14.2439L0.0141077 14.392L0.00265612 16.8762C-0.00363636 18.2425 0.00175719 19.4186 0.0146548 19.4898C0.046 19.6629 0.281049 19.9163 0.458099 19.9678C0.553541 19.9955 1.42429 20.0052 3.10477 19.9974L5.60922 19.9856L5.75734 19.8726C6.17722 19.5524 6.1202 18.908 5.65194 18.6814C5.4863 18.6012 5.43014 18.5985 3.93987 18.5985H2.39907L4.77005 16.2248C6.89667 14.0957 7.14556 13.8337 7.18539 13.6818C7.28345 13.3081 7.06008 12.9212 6.68644 12.8174C6.50158 12.7661 6.45788 12.7679 6.26958 12.835ZM13.2695 12.8336C12.9131 12.9607 12.7199 13.3208 12.8146 13.6818C12.8544 13.8337 13.1033 14.0957 15.2299 16.2248L17.6009 18.5985H16.0601C14.5699 18.5985 14.5137 18.6012 14.3481 18.6814C13.8798 18.908 13.8228 19.5524 14.2427 19.8726L14.3908 19.9856L16.8952 19.9974C18.5757 20.0052 19.4465 19.9955 19.5419 19.9678C19.719 19.9163 19.954 19.6629 19.9853 19.4898C19.9982 19.4186 20.0036 18.2425 19.9973 16.8762L19.9859 14.392L19.8729 14.2439C19.5526 13.8242 18.908 13.8812 18.6813 14.3493C18.6012 14.5149 18.5984 14.5711 18.5984 16.0609V17.6013L16.2241 15.2312C14.188 13.1988 13.8275 12.8552 13.6934 12.8191C13.4967 12.7662 13.4546 12.7676 13.2695 12.8336Z" fill="#5D6571"/>
</svg>
