<svg width="16" height="16" viewBox="0 0 16 16" fill="none" xmlns="http://www.w3.org/2000/svg">
<path fill-rule="evenodd" clip-rule="evenodd" d="M7.46212 0.0353799C7.0782 0.121491 6.67363 0.308799 6.38411 0.534515C6.04446 0.799263 0.804791 5.57219 0.61679 5.78808C0.491926 5.93141 0.363026 6.12886 0.264723 6.32725C-0.0193578 6.90066 0.000290129 6.59484 0.000290129 10.4434V13.8396L0.10122 14.137C0.344504 14.8537 0.818431 15.4062 1.47075 15.7336C2.05143 16.025 1.42408 15.9994 7.99399 15.9994C13.6229 15.9994 13.8042 15.9976 14.0166 15.9392C14.4735 15.8137 14.8618 15.5886 15.1841 15.2625C15.528 14.9145 15.7316 14.5615 15.9028 14.0161L15.9877 13.7457L15.9974 10.5217C16.0045 8.17244 15.9973 7.2339 15.9706 7.06283C15.8933 6.56698 15.6343 6.04528 15.2891 5.69007C15.0424 5.43618 9.80854 0.692431 9.59294 0.527284C9.37991 0.364078 8.92222 0.136359 8.66665 0.0663998C8.40199 -0.00603203 7.72451 -0.023467 7.46212 0.0353799ZM8.4171 1.74463C8.50076 1.78842 9.70126 2.85571 11.2931 4.3015L14.0255 6.78322L14.1618 7.05232L14.2982 7.32141V10.5022V13.6831L14.23 13.8308C14.1284 14.051 13.9062 14.2709 13.6798 14.3755L13.4848 14.4657L8.08784 14.4745C4.21114 14.4809 2.63161 14.4735 2.4804 14.4483C2.10797 14.3863 1.79967 14.1287 1.6494 13.7539C1.60016 13.6311 1.5959 13.3677 1.5959 10.4434V7.26629L1.66695 7.0906C1.73503 6.92216 1.85236 6.81107 4.50789 4.40041C6.03135 3.01745 7.31942 1.86061 7.37029 1.82965C7.69141 1.63426 8.13715 1.59805 8.4171 1.74463Z" fill="#5D6571"/>
</svg>
