<svg width="20" height="20" viewBox="0 0 20 20" fill="none" xmlns="http://www.w3.org/2000/svg">
<path d="M10.7482 2.52756C10.3721 2.49024 9.58534 2.49092 9.21152 2.529C8.07866 2.64443 6.85566 3.08177 5.89979 3.71246L6.17515 4.1298L5.89979 3.71246C3.55105 5.26216 2.26073 7.95667 2.53685 10.7439C2.88712 14.2798 5.71765 17.1125 9.25176 17.4631L9.30111 16.9655L9.25176 17.4631C13.3656 17.8711 17.0561 14.8529 17.4631 10.7439C17.8708 6.62834 14.8549 2.93491 10.7482 2.52756ZM10.7482 2.52756L10.6988 3.02512L10.7482 2.52756Z" stroke="#5D6571"/>
<path fill-rule="evenodd" clip-rule="evenodd" d="M10.3803 6.05546C10.7568 6.18471 10.9642 6.46394 10.9664 6.84484C10.9687 7.22146 10.7586 7.50439 10.3803 7.63423C10.156 7.7112 9.81461 7.71168 9.59215 7.63533C8.80652 7.36566 8.83674 6.26882 9.63609 6.03997C9.84197 5.98103 10.1842 5.98817 10.3803 6.05546ZM10.4462 8.48841C10.6524 8.58571 10.8221 8.74524 10.9196 8.93353L11 9.08877V10.1472V11.2057V13.3226L10.9202 13.4778C10.8237 13.6655 10.6443 13.8351 10.4421 13.9298C10.3136 13.99 10.2507 14 10 14C9.74917 14 9.6864 13.99 9.5576 13.9297C9.34975 13.8323 9.17797 13.6708 9.08157 13.4822L9 13.3226V11.2057V9.08877L9.08028 8.93353C9.20637 8.68975 9.43298 8.50941 9.72308 8.422C9.76538 8.40927 9.91077 8.40266 10.0462 8.40732C10.2377 8.41395 10.3264 8.43193 10.4462 8.48841Z" fill="#555555"/>
</svg>
