<svg width="20" height="20" viewBox="0 0 20 20" fill="none" xmlns="http://www.w3.org/2000/svg">
<path fill-rule="evenodd" clip-rule="evenodd" d="M10.4175 0.121261C10.1456 0.449337 10.3767 0.848506 10.8385 0.848506C11.1406 0.848506 11.9819 1.06116 12.5398 1.27859C14.3522 1.98481 15.8425 3.36576 16.7804 5.208C16.9035 5.44992 17.0042 5.66746 17.0042 5.69139C17.0042 5.71537 16.8109 5.62763 16.5745 5.49641C16.211 5.29461 16.1233 5.26631 16.005 5.31291C15.8095 5.38985 15.6991 5.62564 15.7622 5.83142C15.8038 5.9673 15.9536 6.07061 16.7504 6.5132C17.3218 6.83053 17.7542 7.03637 17.8545 7.03887C18.1783 7.04683 18.2083 6.95192 18.5118 4.95704L18.6 4.37716L18.4786 4.23247C18.3353 4.06175 18.1298 4.04402 17.9703 4.18865C17.887 4.26412 17.8376 4.41711 17.7743 4.79587L17.6896 5.30222L17.4202 4.77291C16.602 3.16521 15.3771 1.8587 13.9057 1.02439C12.8989 0.453428 11.802 0.0829011 10.9125 0.0132283C10.5575 -0.0145613 10.524 -0.00728709 10.4175 0.121261ZM4.46537 0.514747C3.61014 0.625564 2.75348 0.956596 2.03856 1.4526C1.56858 1.77863 0.802181 2.62323 0.563789 3.07781C-0.366832 4.85253 -0.133313 6.87276 1.17515 8.36669L1.49695 8.73409L1.23079 10.0338C1.08438 10.7486 0.969857 11.4205 0.976253 11.5268C0.992397 11.7937 1.20967 11.9794 1.40781 11.8956C1.484 11.8634 2.11059 11.4386 2.80023 10.9517L4.05412 10.0664L4.88159 10.0958C5.51747 10.1183 5.81957 10.1035 6.1863 10.0317C7.37151 9.79964 8.32675 9.26079 9.11264 8.38101C9.61343 7.82045 9.8702 7.39053 10.0837 6.75535C10.4347 5.71122 10.405 4.5993 9.99914 3.59694C9.32499 1.93167 7.68975 0.733597 5.78521 0.509406C5.2338 0.444563 5.00018 0.445472 4.46537 0.514747ZM6.46693 1.49949C9.45332 2.34801 10.5434 5.592 8.57808 7.78169C7.93682 8.49615 7.18505 8.94038 6.25234 9.15594C5.82856 9.25391 5.64652 9.26482 4.94759 9.23396C4.50086 9.21424 4.07824 9.1956 4.00844 9.19259C3.92762 9.18912 3.5311 9.43667 2.91699 9.87403C2.3865 10.2518 1.94586 10.54 1.93779 10.5143C1.92972 10.4886 2.00394 10.0637 2.10278 9.56982C2.20156 9.07603 2.28243 8.60134 2.28243 8.5149C2.28243 8.39329 2.21217 8.28946 1.97145 8.05555C0.487744 6.61356 0.347176 4.46325 1.63564 2.9188C2.77211 1.55649 4.68726 0.993876 6.46693 1.49949ZM2.03897 4.20871C1.6662 4.41529 1.45969 4.81218 1.4638 5.31416C1.46684 5.68423 1.52426 5.84716 1.75037 6.12733C2.50575 7.06337 3.90813 6.19143 3.60389 4.97488C3.52267 4.65022 3.28169 4.32732 3.02213 4.19536C2.73673 4.05022 2.31462 4.05595 2.03897 4.20871ZM4.6633 4.19786C4.10844 4.53543 3.91473 5.2259 4.19881 5.85324C4.51933 6.56099 5.34391 6.74825 5.86871 6.23246C6.15376 5.95229 6.25595 5.66928 6.23336 5.22232C6.21128 4.78445 6.06847 4.49831 5.75251 4.25889C5.49681 4.0651 4.93337 4.03357 4.6633 4.19786ZM7.36917 4.14739C6.64085 4.47456 6.46058 5.58927 7.03696 6.20166C7.37272 6.55838 7.83098 6.6251 8.26857 6.38101C8.87836 6.04083 9.06619 5.18044 8.66063 4.58515C8.42264 4.23593 8.16333 4.08903 7.79042 4.09233C7.62289 4.0938 7.43334 4.11858 7.36917 4.14739ZM2.80277 5.06513C2.92146 5.21874 2.91501 5.42549 2.78709 5.5687C2.54981 5.83432 2.11207 5.5417 2.217 5.18766C2.3067 4.88493 2.61398 4.82065 2.80277 5.06513ZM5.29497 4.94647C5.62489 5.11474 5.52722 5.679 5.16816 5.679C4.77062 5.679 4.6963 5.0794 5.0745 4.92368C5.11638 4.90646 5.15527 4.89032 5.16095 4.88788C5.16664 4.88544 5.22689 4.9118 5.29497 4.94647ZM8.03155 5.04098C8.15166 5.15907 8.14374 5.42554 8.01586 5.5687C7.87372 5.72782 7.62832 5.69719 7.5003 5.50436C7.24632 5.12168 7.70584 4.72086 8.03155 5.04098ZM13.8021 8.66169C11.3516 9.1827 9.68034 11.096 9.68135 13.3791C9.68171 14.0792 9.78558 14.5931 10.0511 15.2078C10.6323 16.5535 11.841 17.5865 13.3353 18.0143C13.9707 18.1962 14.7816 18.268 15.3798 18.1952L15.8973 18.1322L17.2203 19.0661C18.1279 19.7068 18.5886 20 18.6875 20C18.8673 20 19.0348 19.8196 19.0348 19.6261C19.0348 19.5455 18.9206 18.916 18.781 18.2271C18.6414 17.5383 18.5272 16.932 18.5272 16.8797C18.5272 16.8276 18.6434 16.658 18.7856 16.5028C19.8724 15.3165 20.2732 13.5907 19.8104 12.0897C19.3175 10.4913 18.0248 9.26789 16.2973 8.76523C15.6778 8.58497 14.4102 8.53235 13.8021 8.66169ZM16.1486 9.59057C17.1724 9.89563 18.0452 10.5048 18.5626 11.2753C19.0301 11.9715 19.2379 12.6221 19.2379 13.3898C19.2379 14.3688 18.9403 15.1046 18.211 15.9293C17.828 16.3622 17.7149 16.5253 17.7149 16.6445C17.7149 16.7294 17.8026 17.2239 17.9096 17.7435C18.0167 18.263 18.0795 18.6716 18.0492 18.6514C18.0189 18.6313 17.5609 18.31 17.0313 17.9374L16.0685 17.2599L15.5166 17.331C12.4017 17.7327 9.85116 15.2565 10.539 12.4985C10.9017 11.0443 12.1616 9.90455 13.8378 9.51447C14.3499 9.39524 15.6354 9.43758 16.1486 9.59057ZM11.7186 12.2595C11.0819 12.6318 10.9311 13.5249 11.4013 14.1397C11.629 14.4375 11.9322 14.5659 12.3315 14.5336C13.4508 14.4429 13.6735 12.6782 12.6274 12.189C12.3371 12.0532 12.0306 12.077 11.7186 12.2595ZM14.4152 12.1913C14.1827 12.3041 13.9736 12.5302 13.8469 12.8061C13.7021 13.1214 13.7325 13.7059 13.9088 13.9973C14.3148 14.6681 15.1966 14.7358 15.6586 14.1316C15.9615 13.7355 16.016 13.2832 15.818 12.8111C15.6777 12.4769 15.5844 12.3747 15.2773 12.2188C15.0086 12.0823 14.6628 12.0713 14.4152 12.1913ZM16.9474 12.2595C16.3106 12.6318 16.1599 13.5249 16.63 14.1397C16.8578 14.4375 17.1609 14.5659 17.5603 14.5336C18.125 14.4878 18.5436 13.9755 18.5378 13.3372C18.5344 12.9647 18.4778 12.7963 18.2645 12.5243C17.9181 12.0827 17.4207 11.9827 16.9474 12.2595ZM2.49945 12.2854C2.42488 12.376 2.32609 12.7403 2.16065 13.5353C2.03216 14.1523 1.92708 14.6969 1.92708 14.7454C1.92708 14.8848 2.16329 15.1127 2.30782 15.1127C2.52971 15.1127 2.65941 14.9034 2.75982 14.3832L2.8511 13.9103L2.97289 14.2045C3.1895 14.7279 3.63374 15.5282 3.99798 16.0513C5.18212 17.7515 6.85477 18.9498 8.76495 19.4664C9.68511 19.7152 9.99869 19.6561 9.99869 19.2339C9.99869 18.9489 9.8403 18.8356 9.28798 18.7258C8.43406 18.556 7.26038 18.0394 6.52658 17.5104C5.48199 16.7573 4.53832 15.642 3.94366 14.4575C3.69644 13.9651 3.53907 13.5783 3.58597 13.5783C3.60207 13.5783 3.78076 13.6806 3.98305 13.8056C4.40247 14.0648 4.49979 14.0799 4.68691 13.9151C4.84499 13.7759 4.86464 13.534 4.73184 13.3625C4.60152 13.1942 2.8809 12.1575 2.7319 12.1575C2.66195 12.1575 2.55737 12.2151 2.49945 12.2854ZM12.5013 13.1342C12.5891 13.2663 12.5944 13.3093 12.541 13.4537C12.4266 13.7629 12.0643 13.807 11.9308 13.5279C11.7207 13.0885 12.2352 12.7335 12.5013 13.1342ZM15.0752 13.0668C15.3364 13.3593 15.0346 13.8551 14.6994 13.6842C14.5565 13.6112 14.4558 13.3928 14.5005 13.2522C14.5965 12.9494 14.8866 12.8558 15.0752 13.0668ZM17.7259 13.1278C17.8533 13.3199 17.8031 13.5537 17.6103 13.6653C17.2615 13.8673 16.9333 13.3735 17.2103 13.0635C17.3524 12.9043 17.5978 12.935 17.7259 13.1278Z" fill="#555555"/>
</svg>
