<svg width="9" height="14" viewBox="0 0 9 14" fill="none" xmlns="http://www.w3.org/2000/svg">
<path fill-rule="evenodd" clip-rule="evenodd" d="M8.9742 0.748377C8.89892 0.465009 8.65673 0.207963 8.34389 0.0794258C8.18654 0.0147876 8.11911 0.0034211 7.89618 0.00399627C7.40244 0.00525617 7.7359 -0.257652 3.75296 3.27044C1.35081 5.3983 0.187209 6.4475 0.135275 6.53246C0.0140238 6.73084 -0.0285854 6.96512 0.0191183 7.17122C0.0409164 7.26539 0.0931911 7.39877 0.135275 7.46763C0.187209 7.55259 1.35081 8.60178 3.75296 10.7296C7.73624 14.258 7.40266 13.995 7.89618 13.9958C8.1197 13.9962 8.18719 13.9847 8.35111 13.9182C8.91825 13.6883 9.15816 13.0757 8.87759 12.5737C8.83772 12.5024 7.74335 11.5113 5.73988 9.7321L2.66336 7.00004L5.73988 4.26798C7.75119 2.48186 8.83748 1.49799 8.87737 1.42637C8.99346 1.21788 9.03033 0.959629 8.9742 0.748377Z" fill="#555555"/>
</svg>
