<svg width="20" height="20" viewBox="0 0 20 20" fill="none" xmlns="http://www.w3.org/2000/svg">
<path d="M4.66625 19.9961H1.99982C1.46943 19.9961 0.960773 19.9084 0.585734 19.7521C0.210695 19.5958 0 19.3839 0 19.1629V14.1633C0 13.9423 0.210695 13.7304 0.585734 13.5741C0.960773 13.4179 1.46943 13.3301 1.99982 13.3301H4.66625C5.19663 13.3301 5.70529 13.4179 6.08033 13.5741C6.45537 13.7304 6.66607 13.9423 6.66607 14.1633V19.1629C6.66607 19.3839 6.45537 19.5958 6.08033 19.7521C5.70529 19.9084 5.19663 19.9961 4.66625 19.9961Z" fill="#5D6571"/>
<path d="M17.9963 19.9961H15.3299C14.7995 19.9961 14.2909 19.9084 13.9158 19.7521C13.5408 19.5958 13.3301 19.3839 13.3301 19.1629V14.1633C13.3301 13.9423 13.5408 13.7304 13.9158 13.5741C14.2909 13.4179 14.7995 13.3301 15.3299 13.3301H17.9963C18.5267 13.3301 19.0354 13.4179 19.4104 13.5741C19.7854 13.7304 19.9961 13.9423 19.9961 14.1633V19.1629C19.9961 19.3839 19.7854 19.5958 19.4104 19.7521C19.0354 19.9084 18.5267 19.9961 17.9963 19.9961Z" fill="#5D6571"/>
<path d="M4.66625 6.66607H1.99982C1.46943 6.66607 0.960772 6.63095 0.585733 6.56844C0.210694 6.50594 0 6.42116 0 6.33276V0.333303C0 0.244906 0.210694 0.160129 0.585733 0.0976223C0.960772 0.0351158 1.46943 0 1.99982 0H4.66625C5.19663 0 5.70529 0.0351158 6.08033 0.0976223C6.45537 0.160129 6.66607 0.244906 6.66607 0.333303V6.33276C6.66607 6.42116 6.45537 6.50594 6.08033 6.56844C5.70529 6.63095 5.19663 6.66607 4.66625 6.66607Z" fill="#5D6571"/>
<path d="M17.9963 6.66607H15.3299C14.7995 6.66607 14.2909 6.63095 13.9158 6.56844C13.5408 6.50594 13.3301 6.42116 13.3301 6.33276V0.333303C13.3301 0.244906 13.5408 0.160129 13.9158 0.0976223C14.2909 0.0351158 14.7995 0 15.3299 0H17.9963C18.5267 0 19.0354 0.0351158 19.4104 0.0976223C19.7854 0.160129 19.9961 0.244906 19.9961 0.333303V6.33276C19.9961 6.42116 19.7854 6.50594 19.4104 6.56844C19.0354 6.63095 18.5267 6.66607 17.9963 6.66607Z" fill="#5D6571"/>
</svg>
