<svg width="26" height="33" viewBox="0 0 26 33" fill="none" xmlns="http://www.w3.org/2000/svg">
<path d="M12.9573 0C9.52083 0 6.22509 1.36514 3.79511 3.79511C1.36514 6.22509 0 9.52083 0 12.9573C0 21.6063 9.96095 32.3933 12.9573 32.3933C15.9537 32.3933 25.9147 21.6063 25.9147 12.9573C25.9147 9.52083 24.5495 6.22509 22.1195 3.79511C19.6896 1.36514 16.3938 0 12.9573 0ZM12.9573 19.436C11.676 19.436 10.4234 19.056 9.35798 18.3441C8.29257 17.6323 7.46218 16.6204 6.97182 15.4366C6.48147 14.2528 6.35317 12.9501 6.60315 11.6934C6.85313 10.4367 7.47016 9.28228 8.37622 8.37622C9.28228 7.47016 10.4367 6.85313 11.6934 6.60315C12.9501 6.35317 14.2528 6.48147 15.4366 6.97182C16.6204 7.46218 17.6323 8.29257 18.3441 9.35798C19.056 10.4234 19.436 11.676 19.436 12.9573C19.436 14.6756 18.7534 16.3235 17.5384 17.5384C16.3235 18.7534 14.6756 19.436 12.9573 19.436Z" fill="#0066FF"/>
</svg>
