<svg width="4" height="15" viewBox="0 0 4 15" fill="none" xmlns="http://www.w3.org/2000/svg">
<path fill-rule="evenodd" clip-rule="evenodd" d="M1.53659 0.0834537C0.900798 0.254595 0.441466 0.863028 0.441466 1.53397C0.441466 2.86681 2.05835 3.53747 2.99962 2.59507C3.69788 1.89597 3.53955 0.717514 2.68132 0.225905C2.35802 0.0406996 1.90487 -0.0156808 1.53659 0.0834537ZM1.53659 5.58398C1.04604 5.71602 0.618269 6.14919 0.489475 6.6443C0.240034 7.60317 0.954676 8.53463 1.9398 8.53463C3.27104 8.53463 3.94089 6.91579 2.99962 5.97339C2.62213 5.59545 2.05489 5.44446 1.53659 5.58398ZM1.53659 11.0845C1.04604 11.2165 0.618269 11.6497 0.489475 12.1448C0.240034 13.1037 0.954676 14.0352 1.9398 14.0352C3.27104 14.0352 3.94089 12.4163 2.99962 11.4739C2.62213 11.096 2.05489 10.945 1.53659 11.0845Z" fill="#5D6571"/>
</svg>
