<svg width="60" height="53" viewBox="0 0 60 53" fill="none" xmlns="http://www.w3.org/2000/svg">
<g filter="url(#filter0_d_646_2075)">
<circle cx="30" cy="22" r="13" fill="#0E6CB6"/>
</g>
<path fill-rule="evenodd" clip-rule="evenodd" d="M29.5366 15.0835C28.9008 15.2546 28.4415 15.863 28.4415 16.534C28.4415 17.8668 30.0584 18.5375 30.9996 17.5951C31.6979 16.896 31.5396 15.7175 30.6813 15.2259C30.358 15.0407 29.9049 14.9843 29.5366 15.0835ZM29.5366 20.584C29.046 20.716 28.6183 21.1492 28.4895 21.6443C28.24 22.6032 28.9547 23.5346 29.9398 23.5346C31.271 23.5346 31.9409 21.9158 30.9996 20.9734C30.6221 20.5954 30.0549 20.4445 29.5366 20.584ZM29.5366 26.0845C29.046 26.2165 28.6183 26.6497 28.4895 27.1448C28.24 28.1037 28.9547 29.0352 29.9398 29.0352C31.271 29.0352 31.9409 27.4163 30.9996 26.4739C30.6221 26.096 30.0549 25.945 29.5366 26.0845Z" fill="white"/>
<defs>
<filter id="filter0_d_646_2075" x="0" y="-7" width="60" height="60" filterUnits="userSpaceOnUse" color-interpolation-filters="sRGB">
<feFlood flood-opacity="0" result="BackgroundImageFix"/>
<feColorMatrix in="SourceAlpha" type="matrix" values="0 0 0 0 0 0 0 0 0 0 0 0 0 0 0 0 0 0 127 0" result="hardAlpha"/>
<feMorphology radius="1" operator="dilate" in="SourceAlpha" result="effect1_dropShadow_646_2075"/>
<feOffset dy="1"/>
<feGaussianBlur stdDeviation="8"/>
<feComposite in2="hardAlpha" operator="out"/>
<feColorMatrix type="matrix" values="0 0 0 0 0.054902 0 0 0 0 0.423529 0 0 0 0 0.713726 0 0 0 0.3 0"/>
<feBlend mode="normal" in2="BackgroundImageFix" result="effect1_dropShadow_646_2075"/>
<feBlend mode="normal" in="SourceGraphic" in2="effect1_dropShadow_646_2075" result="shape"/>
</filter>
</defs>
</svg>
