<svg width="21" height="22" viewBox="0 0 21 22" fill="none" xmlns="http://www.w3.org/2000/svg">
<path fill-rule="evenodd" clip-rule="evenodd" d="M2.40442 0.0938381C1.69071 0.295581 1.22 0.619182 0.751531 1.23024C0.446667 1.62795 0.227463 2.09658 0.0973549 2.6289C0.00183913 3.01968 -0.000749225 3.2383 9.69281e-05 10.9765C0.0010924 19.8884 -0.0233961 19.2921 0.375839 20.1383C0.747002 20.925 1.3959 21.5714 2.05929 21.8154C2.73651 22.0644 3.46589 22.0615 4.26884 21.8067C4.58232 21.7071 17.9129 14.7167 18.8811 14.1441C20.4985 13.1875 21.2497 11.7962 20.9263 10.3563C20.7396 9.52509 20.1187 8.66614 19.2924 8.09606C18.7738 7.7382 4.82511 0.343439 4.32957 0.16362C3.8152 -0.0230207 2.93117 -0.0550996 2.40442 0.0938381Z" fill="#555555"/>
</svg>
