<svg width="9" height="14" viewBox="0 0 9 14" fill="none" xmlns="http://www.w3.org/2000/svg">
<path fill-rule="evenodd" clip-rule="evenodd" d="M0.0258026 13.2516C0.101079 13.535 0.343273 13.792 0.656111 13.9206C0.813457 13.9852 0.88089 13.9966 1.10382 13.996C1.59756 13.9947 1.2641 14.2577 5.24704 10.7296C7.64919 8.6017 8.81279 7.5525 8.86473 7.46754C8.98598 7.26916 9.02859 7.03488 8.98088 6.82878C8.95908 6.73461 8.90681 6.60123 8.86473 6.53237C8.81279 6.44741 7.64919 5.39822 5.24704 3.27036C1.26376 -0.258038 1.59734 0.00495148 1.10382 0.00415707C0.880304 0.00380135 0.812808 0.0153055 0.648886 0.0817509C0.0817506 0.311655 -0.158158 0.924348 0.122414 1.42628C0.162276 1.49763 1.25665 2.48873 3.26012 4.2679L6.33664 6.99996L3.26012 9.73202C1.24881 11.5181 0.162523 12.502 0.122631 12.5736C0.00653588 12.7821 -0.0303304 13.0404 0.0258026 13.2516Z" fill="#555555"/>
</svg>
