<svg width="19" height="13" viewBox="0 0 19 13" fill="none" xmlns="http://www.w3.org/2000/svg">
<path fill-rule="evenodd" clip-rule="evenodd" d="M18.4666 6.82914C18.391 7.08208 13.6577 11.8651 13.339 12.0107C12.5953 12.3505 11.711 11.7988 11.6951 10.9851C11.6851 10.4768 11.7115 10.4405 13.1583 8.97835L14.4982 7.62422L7.93132 7.62422C2.9199 7.62422 1.3163 7.60991 1.16105 7.5638C0.889549 7.48315 0.480101 7.07149 0.399881 6.79853C0.260448 6.32411 0.377687 5.89457 0.734596 5.57196C0.86533 5.45379 1.06052 5.33055 1.16837 5.29805C1.31561 5.25368 3.00111 5.23897 7.93132 5.23897L14.4982 5.23897L13.1583 3.88484C11.7115 2.42268 11.6851 2.3864 11.6951 1.87804C11.7111 1.0595 12.5955 0.51174 13.3454 0.855763C13.5048 0.928862 14.1928 1.59142 15.9695 3.38264C17.9805 5.41011 18.3901 5.84631 18.4532 6.02789C18.5386 6.27342 18.5436 6.57213 18.4666 6.82914Z" fill="#FAFBFC"/>
</svg>
