<svg width="14" height="16" viewBox="0 0 14 16" fill="none" xmlns="http://www.w3.org/2000/svg">
<path fill-rule="evenodd" clip-rule="evenodd" d="M2.40068 0.0401888C1.44997 0.215199 0.610549 0.805157 0.229115 1.56636C-0.0112946 2.04617 0.00143165 1.63562 0.000676022 8.93145L0 15.6211L0.0904371 15.7336C0.290878 15.983 0.652626 16.0702 0.938453 15.9381C1.00622 15.9067 2.3975 15.0955 4.03021 14.1352L6.99877 12.3893L9.95205 14.1225C11.5764 15.0757 12.968 15.8876 13.0446 15.9266C13.335 16.0747 13.7002 15.9929 13.9091 15.7331L14 15.62L13.9896 8.84752C13.9797 2.43454 13.9753 2.06444 13.9075 1.87496C13.6055 1.03159 12.8783 0.398112 11.8714 0.101282L11.5532 0.0074744L7.09895 0.00137171C3.49069 -0.00356379 2.59837 0.00380616 2.40068 0.0401888ZM11.3253 1.10822C11.8369 1.20937 12.2873 1.49373 12.5041 1.85245C12.7382 2.23969 12.7275 1.91021 12.7166 8.43614L12.7065 14.4192L10.3601 13.0403C7.0414 11.09 7.23397 11.1957 6.99952 11.1957C6.76508 11.1957 6.95765 11.09 3.63896 13.0403L1.29253 14.4192L1.28242 8.44721C1.27582 4.53626 1.2862 2.41236 1.31249 2.29304C1.44166 1.70662 2.02366 1.2068 2.70866 1.09402C2.80474 1.07818 4.72667 1.0638 6.97964 1.06207C10.4642 1.0594 11.1132 1.06627 11.3253 1.10822Z" fill="#5D6571"/>
</svg>
