<svg width="16" height="18" viewBox="0 0 16 18" fill="none" xmlns="http://www.w3.org/2000/svg">
<path fill-rule="evenodd" clip-rule="evenodd" d="M2.74363 0.0452124C1.65711 0.242099 0.697771 0.905802 0.261846 1.76215C-0.0129081 2.30194 0.00163617 1.84007 0.000772597 10.0479L0 17.5738L0.103357 17.7003C0.332432 17.9809 0.745858 18.079 1.07252 17.9303C1.14997 17.8951 2.74 16.9824 4.60596 15.9021L7.99859 13.938L11.3738 15.8878C13.2301 16.9602 14.8206 17.8735 14.9081 17.9174C15.2401 18.084 15.6574 17.9921 15.8961 17.6997L16 17.5724L15.9881 9.95346C15.9768 2.73886 15.9718 2.3225 15.8943 2.10933C15.5492 1.16054 14.718 0.447876 13.5673 0.113942L13.2036 0.0084087L8.11308 0.00154317C3.98937 -0.00400927 2.96957 0.00428193 2.74363 0.0452124Z" fill="#0E6CB6"/>
</svg>
