<svg width="209" height="37" viewBox="0 0 209 37" fill="none" xmlns="http://www.w3.org/2000/svg">
<rect width="209" height="37" rx="10" fill="#FAFBFC"/>
<rect x="9" y="10" width="191" height="5" rx="2.5" fill="url(#paint0_linear_1356_4187)"/>
<path d="M12.0371 30.1172C13.6777 30.1172 14.625 28.6963 14.625 26.4697C14.625 24.2578 13.6729 22.8369 12.0371 22.8369C10.4014 22.8369 9.43945 24.2676 9.43945 26.4746C9.43945 28.7012 10.3916 30.1172 12.0371 30.1172ZM12.0371 29.3506C10.9336 29.3506 10.3232 28.2275 10.3232 26.4697C10.3232 24.751 10.9482 23.6084 12.0371 23.6084C13.126 23.6084 13.7412 24.7412 13.7412 26.4746C13.7412 28.2324 13.1357 29.3506 12.0371 29.3506Z" fill="#5D6571"/>
<path d="M186.368 30H187.218V22.9541H186.358L184.483 24.3018V25.2295L186.349 23.8867H186.368V30ZM191.471 30.1172C193.111 30.1172 194.059 28.6963 194.059 26.4697C194.059 24.2578 193.106 22.8369 191.471 22.8369C189.835 22.8369 188.873 24.2676 188.873 26.4746C188.873 28.7012 189.825 30.1172 191.471 30.1172ZM191.471 29.3506C190.367 29.3506 189.757 28.2275 189.757 26.4697C189.757 24.751 190.382 23.6084 191.471 23.6084C192.56 23.6084 193.175 24.7412 193.175 26.4746C193.175 28.2324 192.569 29.3506 191.471 29.3506ZM197.535 30.1172C199.176 30.1172 200.123 28.6963 200.123 26.4697C200.123 24.2578 199.171 22.8369 197.535 22.8369C195.899 22.8369 194.938 24.2676 194.938 26.4746C194.938 28.7012 195.89 30.1172 197.535 30.1172ZM197.535 29.3506C196.432 29.3506 195.821 28.2275 195.821 26.4697C195.821 24.751 196.446 23.6084 197.535 23.6084C198.624 23.6084 199.239 24.7412 199.239 26.4746C199.239 28.2324 198.634 29.3506 197.535 29.3506Z" fill="#5D6571"/>
<path d="M139.977 30H140.899L144.034 23.7695V22.9541H139.371V23.7354H143.165V23.7549L139.977 30ZM147.462 30.1172C148.932 30.1172 149.972 29.126 149.972 27.71C149.972 26.3428 148.995 25.3516 147.643 25.3516C146.969 25.3516 146.383 25.6055 146.065 26.0303H146.046L146.261 23.7354H149.571V22.9541H145.538L145.152 26.8994H145.978C146.266 26.4062 146.827 26.1084 147.486 26.1084C148.424 26.1084 149.093 26.7871 149.093 27.7344C149.093 28.6816 148.429 29.3457 147.472 29.3457C146.627 29.3457 145.987 28.8281 145.909 28.0762H145.045C145.118 29.2773 146.114 30.1172 147.462 30.1172Z" fill="#5D6571"/>
<path d="M96.9932 30.1172C98.4629 30.1172 99.5029 29.126 99.5029 27.71C99.5029 26.3428 98.5264 25.3516 97.1738 25.3516C96.5 25.3516 95.9141 25.6055 95.5967 26.0303H95.5771L95.792 23.7354H99.1025V22.9541H95.0693L94.6836 26.8994H95.5088C95.7969 26.4062 96.3584 26.1084 97.0176 26.1084C97.9551 26.1084 98.624 26.7871 98.624 27.7344C98.624 28.6816 97.96 29.3457 97.0029 29.3457C96.1582 29.3457 95.5186 28.8281 95.4404 28.0762H94.5762C94.6494 29.2773 95.6455 30.1172 96.9932 30.1172ZM102.887 30.1172C104.527 30.1172 105.475 28.6963 105.475 26.4697C105.475 24.2578 104.522 22.8369 102.887 22.8369C101.251 22.8369 100.289 24.2676 100.289 26.4746C100.289 28.7012 101.241 30.1172 102.887 30.1172ZM102.887 29.3506C101.783 29.3506 101.173 28.2275 101.173 26.4697C101.173 24.751 101.798 23.6084 102.887 23.6084C103.976 23.6084 104.591 24.7412 104.591 26.4746C104.591 28.2324 103.985 29.3506 102.887 29.3506Z" fill="#5D6571"/>
<path d="M49.5273 24.9854V24.9902H50.377V24.9854C50.377 24.1992 51.002 23.6035 51.8271 23.6035C52.6035 23.6035 53.2236 24.1455 53.2236 24.8242C53.2236 25.4102 52.999 25.7861 52.0518 26.7822L49.5713 29.3945V30H54.2197V29.2188H50.7871V29.1992L52.5693 27.3584C53.7461 26.1426 54.1025 25.5566 54.1025 24.7705C54.1025 23.6914 53.1113 22.8369 51.8516 22.8369C50.5234 22.8369 49.5273 23.7549 49.5273 24.9854ZM57.6572 30.1172C59.127 30.1172 60.167 29.126 60.167 27.71C60.167 26.3428 59.1904 25.3516 57.8379 25.3516C57.1641 25.3516 56.5781 25.6055 56.2607 26.0303H56.2412L56.4561 23.7354H59.7666V22.9541H55.7334L55.3477 26.8994H56.1729C56.4609 26.4062 57.0225 26.1084 57.6816 26.1084C58.6191 26.1084 59.2881 26.7871 59.2881 27.7344C59.2881 28.6816 58.624 29.3457 57.667 29.3457C56.8223 29.3457 56.1826 28.8281 56.1045 28.0762H55.2402C55.3135 29.2773 56.3096 30.1172 57.6572 30.1172Z" fill="#5D6571"/>
<defs>
<linearGradient id="paint0_linear_1356_4187" x1="9" y1="12.5" x2="200" y2="12.4999" gradientUnits="userSpaceOnUse">
<stop stop-color="#001876"/>
<stop offset="0.140625" stop-color="#0066FF"/>
<stop offset="0.286458" stop-color="#009F23"/>
<stop offset="0.427083" stop-color="#F3CF13"/>
<stop offset="0.578125" stop-color="#FFA216"/>
<stop offset="0.723958" stop-color="#FF0202"/>
<stop offset="0.880208" stop-color="#AE0000"/>
<stop offset="1" stop-color="#640000"/>
</linearGradient>
</defs>
</svg>
