<svg width="18" height="18" viewBox="0 0 18 18" fill="none" xmlns="http://www.w3.org/2000/svg">
<path fill-rule="evenodd" clip-rule="evenodd" d="M6.40914 0.0588014C3.43678 0.51621 0.877485 2.9048 0.157418 5.89368C-0.057109 6.78436 -0.0515209 8.45986 0.168979 9.33035C0.822482 11.9108 2.75486 13.9918 5.27775 14.8323C5.97623 15.0651 6.18816 15.0896 7.5415 15.0944C9.22843 15.1003 9.89629 14.954 11.1358 14.3066L11.792 13.9638L13.7367 15.8929C15.3408 17.4841 15.7531 17.843 16.0908 17.9424C17.1689 18.2595 18.2443 17.2136 17.951 16.1333C17.8738 15.8491 17.4445 15.3656 15.9243 13.8505C14.8635 12.7934 13.9956 11.8862 13.9956 11.8347C13.9956 11.7833 14.1704 11.4059 14.384 10.996C14.9626 9.88593 15.174 8.98352 15.18 7.59956C15.1871 5.94714 14.7957 4.63828 13.9011 3.32336C12.8525 1.7819 11.258 0.677654 9.37322 0.187456C8.67993 0.0071659 7.17053 -0.0583154 6.40914 0.0588014ZM8.98645 1.99363C9.79428 2.18046 10.7914 2.72672 11.4597 3.34865C12.735 4.5353 13.3213 5.85416 13.3213 7.53629C13.3213 9.22823 12.8049 10.4824 11.6256 11.6549C10.5033 12.7706 9.15956 13.3208 7.55701 13.3208C6.03558 13.3208 4.63118 12.7347 3.54679 11.6472C2.39709 10.4943 1.85803 9.1966 1.85803 7.58187C1.85803 6.06714 2.3339 4.83251 3.34084 3.7349C4.81238 2.13084 6.85534 1.50074 8.98645 1.99363Z" fill="#5D6571"/>
</svg>
