<svg width="18" height="18" viewBox="0 0 18 18" fill="none" xmlns="http://www.w3.org/2000/svg">
<path fill-rule="evenodd" clip-rule="evenodd" d="M7.88616 1.06369C7.67078 1.14651 7.45897 1.33918 7.35931 1.54286C7.29241 1.67962 7.26144 1.83566 7.18819 2.40493C7.139 2.78725 7.08709 3.11015 7.07281 3.12249C7.05856 3.13484 6.95547 3.17734 6.84375 3.21694C6.73203 3.25654 6.53756 3.33589 6.41159 3.39324L6.18256 3.49753L5.63713 3.0729C5.02128 2.59342 4.89444 2.52985 4.55434 2.53032C4.17334 2.53082 4.08541 2.58914 3.33787 3.3367C2.59037 4.0843 2.53206 4.17224 2.53156 4.55327C2.53109 4.8934 2.59466 5.02025 3.07409 5.63615L3.49869 6.18163L3.39441 6.41068C3.33706 6.53666 3.25772 6.73115 3.21813 6.84288C3.17853 6.9546 3.13603 7.05771 3.12369 7.07196C3.11134 7.08624 2.79138 7.13778 2.41266 7.18653C1.95181 7.24582 1.67684 7.29604 1.58128 7.33829C1.37253 7.43065 1.14747 7.66992 1.06697 7.88506C1.004 8.05342 1 8.11977 1 8.99931C1 9.87886 1.004 9.94521 1.06697 10.1136C1.14634 10.3257 1.35266 10.5468 1.56894 10.6514C1.68025 10.7052 1.88438 10.7441 2.40863 10.8116C2.78956 10.8606 3.11134 10.9124 3.12369 10.9267C3.13603 10.9409 3.17853 11.044 3.21813 11.1557C3.25772 11.2675 3.33706 11.462 3.39441 11.5879L3.49869 11.817L3.07409 12.3625C2.59466 12.9784 2.53109 13.1052 2.53156 13.4453C2.53206 13.8268 2.59028 13.9145 3.33787 14.6604C3.73141 15.0531 4.03941 15.3342 4.125 15.3788C4.24353 15.4407 4.31225 15.4522 4.5625 15.4526C4.94391 15.4531 4.99203 15.4292 5.66163 14.9073L6.18262 14.5011L6.41163 14.6054C6.53756 14.6627 6.73203 14.7421 6.84375 14.7817C6.95547 14.8213 7.05856 14.8638 7.07281 14.8761C7.08709 14.8885 7.13888 15.2103 7.18788 15.5913C7.25534 16.1155 7.29428 16.3197 7.34809 16.431C7.45266 16.6473 7.67369 16.8536 7.88584 16.933C8.05419 16.996 8.12053 17 9 17C9.87947 17 9.94581 16.996 10.1142 16.933C10.3293 16.8525 10.5685 16.6274 10.6609 16.4187C10.7031 16.3231 10.7533 16.0481 10.8126 15.5872C10.8614 15.2085 10.9129 14.8885 10.9272 14.8761C10.9414 14.8638 11.0445 14.8213 11.1563 14.7817C11.268 14.7421 11.4624 14.6627 11.5884 14.6054L11.8174 14.5011L12.3629 14.9257C12.9787 15.4052 13.1056 15.4688 13.4457 15.4683C13.827 15.4678 13.9147 15.4096 14.6606 14.6619C15.069 14.2525 15.3317 13.9638 15.3768 13.8747C15.4255 13.7782 15.4523 13.6593 15.4621 13.4957C15.4844 13.1226 15.4364 13.0207 14.9352 12.3749L14.5016 11.8164L14.6057 11.5876C14.663 11.4618 14.7423 11.2675 14.7819 11.1557C14.8215 11.044 14.864 10.9409 14.8763 10.9267C14.8887 10.9124 15.2104 10.8606 15.5914 10.8116C16.1156 10.7441 16.3198 10.7052 16.4311 10.6514C16.6473 10.5468 16.8537 10.3257 16.933 10.1136C16.996 9.94521 17 9.87886 17 8.99931C17 7.93519 16.9852 7.85193 16.7478 7.58228C16.5347 7.34004 16.3865 7.28935 15.5938 7.18734C15.2115 7.13815 14.8887 7.08624 14.8763 7.07196C14.864 7.05771 14.8215 6.9546 14.7819 6.84288C14.7423 6.73115 14.6629 6.53666 14.6056 6.41071L14.5013 6.18169L14.9074 5.66065C15.406 5.02094 15.4489 4.93934 15.4638 4.60234C15.4822 4.18409 15.4343 4.10852 14.6623 3.3367C13.9146 2.58914 13.8266 2.53082 13.4457 2.53032C13.1056 2.52985 12.9787 2.59342 12.3629 3.0729L11.8174 3.49753L11.5884 3.39324C11.4624 3.33589 11.268 3.25654 11.1563 3.21694C11.0445 3.17734 10.9414 3.13484 10.9272 3.12249C10.9129 3.11015 10.8614 2.79015 10.8126 2.4114C10.7533 1.95052 10.7031 1.67553 10.6609 1.57995C10.5685 1.37119 10.3293 1.14611 10.1142 1.0656C9.94525 1.00241 9.88188 0.998717 8.991 1.00025C8.12769 1.00175 8.03313 1.00719 7.88616 1.06369ZM9.67188 5.74572C10.7408 5.96752 11.6424 6.70736 12.0621 7.70711C12.2538 8.16396 12.2969 8.40073 12.2969 8.99931C12.2969 9.47401 12.2873 9.58124 12.2245 9.81119C11.9325 10.8802 11.1965 11.7133 10.2052 12.097C9.76556 12.2672 9.42794 12.3201 8.89063 12.3031C8.54125 12.292 8.35822 12.2707 8.17188 12.2196C6.923 11.877 6.00394 10.9112 5.74669 9.67124C5.67328 9.31743 5.66869 8.73038 5.73653 8.37273C5.98806 7.04661 7.0335 6.00065 8.375 5.73294C8.68916 5.67024 9.339 5.67665 9.67188 5.74572Z" stroke="#5D6571"/>
</svg>
