<svg width="17" height="20" viewBox="0 0 17 20" fill="none" xmlns="http://www.w3.org/2000/svg">
<path fill-rule="evenodd" clip-rule="evenodd" d="M13.1538 0.0621156C11.981 0.307559 11.0037 1.25846 10.685 2.46435C10.5791 2.86486 10.5903 3.75599 10.7062 4.15764C10.7548 4.32611 10.7889 4.46911 10.7821 4.4754C10.7752 4.48173 9.59802 5.22916 8.16614 6.13642L5.56271 7.78595L5.35248 7.58915C4.30402 6.60773 2.75423 6.44891 1.53167 7.19758C1.25053 7.36973 0.747904 7.85417 0.56705 8.12731C0.194319 8.69009 0.0352849 9.17707 0.00411898 9.851C-0.0420004 10.8493 0.299375 11.7057 1.01806 12.3943C1.59877 12.9508 2.22296 13.2271 3.00672 13.2747C3.8635 13.3267 4.7165 13.0162 5.35248 12.4209L5.56271 12.2241L8.16614 13.8736C9.59802 14.7809 10.7752 15.5283 10.7821 15.5346C10.7889 15.5409 10.7548 15.6839 10.7062 15.8524C10.5794 16.2916 10.578 17.1517 10.7034 17.5959C10.889 18.2541 11.2886 18.8743 11.793 19.2872C12.0956 19.5347 12.6295 19.8153 12.9821 19.9119C13.3451 20.0114 14.0318 20.0299 14.4148 19.9505C16.1981 19.581 17.3362 17.7603 16.9107 15.9574C16.8237 15.5888 16.5171 14.958 16.2811 14.6624C15.9036 14.1894 15.3824 13.824 14.7921 13.6184C13.7053 13.2398 12.436 13.5262 11.6195 14.3343C11.4558 14.4963 11.4314 14.5082 11.3524 14.4644C11.3046 14.438 10.1239 13.6908 8.72873 12.8041C6.99771 11.7039 6.19663 11.174 6.20659 11.1357C6.2146 11.1047 6.2558 10.9564 6.29814 10.806C6.40743 10.4176 6.40743 9.59239 6.29814 9.20407C6.2558 9.05364 6.2146 8.90529 6.20659 8.87439C6.19663 8.83602 6.99771 8.3061 8.72873 7.20595C10.1239 6.31927 11.3046 5.57212 11.3523 5.54567C11.4306 5.5023 11.4549 5.51304 11.6003 5.65526C12.4519 6.48845 13.6925 6.77472 14.7921 6.39167C16.2482 5.88437 17.1625 4.42434 16.9752 2.90534C16.8559 1.93756 16.3472 1.08311 15.5756 0.554564C14.8784 0.0769234 13.9677 -0.108233 13.1538 0.0621156ZM14.2806 1.27386C14.6383 1.36794 14.8966 1.51653 15.1823 1.7926C16.0098 2.59207 16.0243 3.90286 15.215 4.73178C14.9086 5.04564 14.591 5.21646 14.1477 5.30593C13.4962 5.43737 12.8698 5.23088 12.3749 4.72163C11.743 4.07149 11.6043 3.20091 11.9974 2.35268C12.3882 1.50942 13.3852 1.03838 14.2806 1.27386ZM3.64606 7.99311C4.01467 8.08211 4.33007 8.26566 4.61144 8.5549C5.57278 9.54309 5.32971 11.174 4.12297 11.8328C2.85257 12.5263 1.28562 11.6305 1.18545 10.1534C1.11816 9.16125 1.73941 8.26305 2.66462 8.01495C3.00844 7.92278 3.32559 7.91571 3.64606 7.99311ZM14.2028 14.7135C14.6024 14.7998 14.9219 14.9781 15.215 15.2783C15.6689 15.7432 15.8827 16.3829 15.7935 17.0095C15.6492 18.0236 14.7939 18.796 13.8152 18.796C12.6764 18.796 11.7805 17.8783 11.7805 16.712C11.7805 16.1731 11.9804 15.6943 12.3749 15.2884C12.8883 14.7602 13.5115 14.5642 14.2028 14.7135Z" fill="#5D6571"/>
</svg>
