<svg width="13" height="19" viewBox="0 0 13 19" fill="none" xmlns="http://www.w3.org/2000/svg">
<path fill-rule="evenodd" clip-rule="evenodd" d="M6.17089 0.533371C5.91796 0.609043 1.13497 5.34229 0.989371 5.661C0.649572 6.40467 1.20121 7.28896 2.01488 7.30493C2.52324 7.31491 2.55951 7.28847 4.02168 5.8417L5.37581 4.50184V11.0687C5.37581 16.0801 5.39012 17.6837 5.43623 17.8389C5.51688 18.1105 5.92854 18.5199 6.2015 18.6001C6.67592 18.7396 7.10546 18.6223 7.42807 18.2654C7.54624 18.1347 7.66948 17.9395 7.70198 17.8316C7.74635 17.6844 7.76106 15.9989 7.76106 11.0687V4.50184L9.11519 5.8417C10.5774 7.28847 10.6136 7.31491 11.122 7.30493C11.9405 7.28887 12.4883 6.40452 12.1443 5.65457C12.0712 5.49522 11.4086 4.8072 9.61739 3.03046C7.58992 1.01948 7.15372 0.609933 6.97214 0.546765C6.72661 0.461406 6.4279 0.456413 6.17089 0.533371Z" fill="#FAFBFC"/>
</svg>
