<svg width="18" height="18" viewBox="0 0 18 18" fill="none" xmlns="http://www.w3.org/2000/svg">
<path fill-rule="evenodd" clip-rule="evenodd" d="M8.68956 0.0427311C8.49199 0.102208 4.75602 3.82243 4.6423 4.07292C4.37688 4.65743 4.80777 5.35246 5.44332 5.36501C5.8404 5.37286 5.86873 5.35208 7.01082 4.21495L8.06852 3.16185V8.32323C8.06852 12.2621 8.0797 13.5225 8.11572 13.6445C8.17872 13.8579 8.50026 14.1797 8.71347 14.2428C9.08404 14.3523 9.41955 14.2602 9.67154 13.9797C9.76384 13.8769 9.8601 13.7235 9.88549 13.6387C9.92015 13.523 9.93164 12.1983 9.93164 8.32323V3.16185L10.9893 4.21495C12.1314 5.35208 12.1598 5.37286 12.5568 5.36501C13.1962 5.35239 13.6241 4.65731 13.3553 4.06787C13.2982 3.94262 12.7807 3.40186 11.3816 2.00538C9.79796 0.424803 9.45724 0.102907 9.31541 0.0532589C9.12363 -0.0138319 8.89031 -0.0177556 8.68956 0.0427311ZM0.616071 8.12506C0.413263 8.18904 0.0980091 8.52259 0.0398257 8.7347C0.00287393 8.86943 -0.00554889 9.81787 0.00314564 12.872L0.0144408 16.8346L0.13729 17.0941C0.30823 17.4552 0.528272 17.6802 0.881565 17.8549L1.17485 18H9.00008H16.8253L17.1186 17.8549C17.4719 17.6802 17.6919 17.4552 17.8629 17.0941L17.9857 16.8346L17.997 12.872C18.0054 9.90641 17.9967 8.86749 17.9623 8.74236C17.8973 8.5062 17.6243 8.21387 17.3961 8.13605C17.0199 8.00774 16.7163 8.07961 16.4318 8.36433C16.3087 8.48755 16.2189 8.61905 16.1892 8.71979C16.1536 8.84033 16.142 9.77479 16.142 12.5172V16.1547H9.00008H1.85815V12.5172C1.85815 9.81942 1.84623 8.83987 1.812 8.72554C1.74438 8.49963 1.46872 8.21095 1.24914 8.13605C1.04401 8.06609 0.815579 8.06213 0.616071 8.12506Z" fill="#FAFBFC"/>
</svg>
