
<svg width="15" height="10" viewBox="0 0 15 10" fill="none" xmlns="http://www.w3.org/2000/svg">
<path fill-rule="evenodd" clip-rule="evenodd" d="M13.7516 9.4742C14.035 9.39892 14.292 9.15673 14.4206 8.84389C14.4852 8.68654 14.4966 8.61911 14.496 8.39618C14.4947 7.90244 14.7577 8.2359 11.2296 4.25296C9.1017 1.85081 8.0525 0.687209 7.96754 0.635275C7.76916 0.514024 7.53488 0.471415 7.32878 0.519118C7.23461 0.540916 7.10123 0.593191 7.03237 0.635275C6.94741 0.687209 5.89822 1.85081 3.77036 4.25296C0.241962 8.23624 0.504951 7.90266 0.504157 8.39618C0.503801 8.6197 0.515306 8.68719 0.581751 8.85111C0.811655 9.41825 1.42435 9.65816 1.92628 9.37759C1.99763 9.33772 2.98873 8.24335 4.7679 6.23988L7.49996 3.16336L10.232 6.23988C12.0181 8.25119 13.002 9.33748 13.0736 9.37737C13.2821 9.49346 13.5404 9.53033 13.7516 9.4742Z" fill="#5D6571"/>
</svg>
