<svg width="15" height="14" viewBox="0 0 15 14" fill="none" xmlns="http://www.w3.org/2000/svg">
<path fill-rule="evenodd" clip-rule="evenodd" d="M14.2649 13.9721C14.5261 13.8878 14.7906 13.6489 14.9263 13.3748L15 13.226V6.99312V0.760244L14.9263 0.611449C14.826 0.40869 14.6251 0.19393 14.4369 0.0880527C14.2992 0.0105801 14.245 3.24249e-05 13.9833 -9.53674e-07C13.7301 -6.67572e-05 13.6654 0.0116062 13.546 0.0787296C13.2034 0.271568 5.13028 5.86571 4.98125 6.01358C4.87974 6.11433 4.77767 6.26048 4.71535 6.3943C4.61903 6.60106 4.61418 6.62976 4.61418 6.99312C4.61418 7.35647 4.61903 7.38518 4.71535 7.59194C4.77767 7.72575 4.87974 7.8719 4.98125 7.97265C5.15862 8.14869 13.3219 13.7923 13.5901 13.9243C13.7118 13.9842 13.7996 14.0018 13.9677 13.9999C14.0881 13.9985 14.2218 13.986 14.2649 13.9721ZM2.75531 13.7956C2.81337 13.7542 2.89289 13.6702 2.93199 13.6088L3.00313 13.4973V6.99312V0.488974L2.93199 0.377411C2.89289 0.316041 2.81337 0.231988 2.75531 0.190656C2.65029 0.115829 2.64407 0.115465 1.50156 0.115465C0.359062 0.115465 0.352837 0.115829 0.247821 0.190656C0.18976 0.231988 0.11024 0.316041 0.0711365 0.377411L0 0.488974V6.99312V13.4973L0.0711365 13.6088C0.11024 13.6702 0.18976 13.7542 0.247821 13.7956C0.352837 13.8704 0.359062 13.8708 1.50156 13.8708C2.64407 13.8708 2.65029 13.8704 2.75531 13.7956Z" fill="#555555"/>
</svg>
