<svg width="15" height="14" viewBox="0 0 15 14" fill="none" xmlns="http://www.w3.org/2000/svg">
<path fill-rule="evenodd" clip-rule="evenodd" d="M0.735141 0.0278857C0.4739 0.112203 0.209374 0.351069 0.0736705 0.625216L0 0.774012V7.00688V13.2398L0.0736705 13.3886C0.174025 13.5913 0.374859 13.8061 0.563087 13.9119C0.700824 13.9894 0.755005 14 1.01668 14C1.26985 14.0001 1.33461 13.9884 1.45395 13.9213C1.79662 13.7284 9.86972 8.13429 10.0187 7.98642C10.1203 7.88567 10.2223 7.73952 10.2846 7.6057C10.381 7.39894 10.3858 7.37024 10.3858 7.00688C10.3858 6.64353 10.381 6.61482 10.2846 6.40806C10.2223 6.27425 10.1203 6.1281 10.0187 6.02735C9.84138 5.85131 1.67809 0.207664 1.40991 0.0756655C1.28819 0.0157506 1.20038 -0.00180729 1.03233 0.000143578C0.911887 0.00153233 0.778154 0.0139981 0.735141 0.0278857ZM12.2447 0.204423C12.1866 0.245755 12.1071 0.329808 12.068 0.391178L11.9969 0.502741V7.00688V13.511L12.068 13.6226C12.1071 13.684 12.1866 13.768 12.2447 13.8093C12.3497 13.8842 12.3559 13.8845 13.4984 13.8845C14.6409 13.8845 14.6472 13.8842 14.7522 13.8093C14.8102 13.768 14.8898 13.684 14.9289 13.6226L15 13.511V7.00688V0.502741L14.9289 0.391178C14.8898 0.329808 14.8102 0.245755 14.7522 0.204423C14.6472 0.129595 14.6409 0.129232 13.4984 0.129232C12.3559 0.129232 12.3497 0.129595 12.2447 0.204423Z" fill="#555555"/>
</svg>
